<svg width="38" height="38" viewBox="0 0 38 38" fill="none" xmlns="http://www.w3.org/2000/svg">
<circle cx="19" cy="19" r="15" fill="#D1D2D1"/>
<path d="M19 0C8.50658 0 0 8.50658 0 19C0 29.4934 8.50658 38 19 38C29.4934 38 38 29.4934 38 19C38 8.50658 29.4934 0 19 0ZM23.205 10.8776C25.4627 10.8423 27.5044 12.0697 28.4723 14.1622C29.3676 16.9285 28.6184 19.7426 27.0394 21.8635C25.9972 23.3017 24.7516 24.542 23.4781 25.6257C22.3065 26.7163 19.6842 28.8744 18.9892 28.9343C18.3749 28.8169 17.6854 28.1212 17.1977 27.7637C14.4574 25.6806 11.5082 23.1485 10.0126 20.3788C8.75852 17.7197 8.75624 14.4298 10.708 12.3912C13.2387 10.1096 17.0536 10.5562 18.9892 12.9398C19.509 12.2654 20.1483 11.7344 20.907 11.348C21.6758 11.0412 22.4524 10.8894 23.205 10.8776V10.8776Z" fill="#272B31"/>
</svg>
