<svg width="35" height="31" viewBox="0 0 35 31" fill="none" xmlns="http://www.w3.org/2000/svg">
<path d="M26.25 26.4375C26.25 28.8547 23.8 30.8125 20.7812 30.8125C17.7625 30.8125 15.3125 28.8547 15.3125 26.4375C15.3125 24.0203 17.7625 22.0625 20.7812 22.0625C23.8 22.0625 26.25 24.0203 26.25 26.4375Z" fill="#D1D2D1"/>
<path fill-rule="evenodd" clip-rule="evenodd" d="M26.25 4.5625V26.4375H24.0625V4.5625H26.25Z" fill="#D1D2D1"/>
<path d="M24.0625 4.16875C24.0628 3.66324 24.2382 3.17343 24.5588 2.78261C24.8794 2.39179 25.3255 2.12408 25.8212 2.025L32.3837 0.712504C32.701 0.649095 33.0283 0.65684 33.3422 0.735182C33.6561 0.813523 33.9487 0.96051 34.1989 1.16555C34.4492 1.37059 34.6508 1.62859 34.7893 1.92094C34.9279 2.2133 34.9998 2.53274 35 2.85625V6.75L24.0625 8.9375V4.16875Z" fill="#D1D2D1"/>
<path fill-rule="evenodd" clip-rule="evenodd" d="M0 23.1562C0 22.8662 0.115234 22.588 0.320352 22.3829C0.52547 22.1777 0.803669 22.0625 1.09375 22.0625H8.75C9.04008 22.0625 9.31828 22.1777 9.5234 22.3829C9.72852 22.588 9.84375 22.8662 9.84375 23.1562C9.84375 23.4463 9.72852 23.7245 9.5234 23.9296C9.31828 24.1348 9.04008 24.25 8.75 24.25H1.09375C0.803669 24.25 0.52547 24.1348 0.320352 23.9296C0.115234 23.7245 0 23.4463 0 23.1562ZM0 14.4062C0 14.1162 0.115234 13.838 0.320352 13.6329C0.52547 13.4277 0.803669 13.3125 1.09375 13.3125H17.5C17.7901 13.3125 18.0683 13.4277 18.2734 13.6329C18.4785 13.838 18.5938 14.1162 18.5938 14.4062C18.5938 14.6963 18.4785 14.9745 18.2734 15.1796C18.0683 15.3848 17.7901 15.5 17.5 15.5H1.09375C0.803669 15.5 0.52547 15.3848 0.320352 15.1796C0.115234 14.9745 0 14.6963 0 14.4062ZM0 5.65625C0 5.36617 0.115234 5.08797 0.320352 4.88285C0.52547 4.67773 0.803669 4.5625 1.09375 4.5625H17.5C17.7901 4.5625 18.0683 4.67773 18.2734 4.88285C18.4785 5.08797 18.5938 5.36617 18.5938 5.65625C18.5938 5.94633 18.4785 6.22453 18.2734 6.42965C18.0683 6.63477 17.7901 6.75 17.5 6.75H1.09375C0.803669 6.75 0.52547 6.63477 0.320352 6.42965C0.115234 6.22453 0 5.94633 0 5.65625Z" fill="#D1D2D1"/>
</svg>
