<svg width="31" height="31" viewBox="0 0 31 31" fill="none" xmlns="http://www.w3.org/2000/svg">
<path d="M10.0386 11.125C11.4473 11.125 12.5906 12.2669 12.5906 13.6771V27.5312C12.5906 28.2081 12.3218 28.8572 11.8432 29.3358C11.3645 29.8144 10.7154 30.0833 10.0386 30.0833H3.46877C2.79192 30.0833 2.14278 29.8144 1.66418 29.3358C1.18557 28.8572 0.916687 28.2081 0.916687 27.5312V13.6771C0.916687 12.2669 2.06002 11.125 3.46877 11.125H10.0386ZM7.11898 24.9719H6.38981L6.24106 24.9821C5.97927 25.0181 5.73938 25.1477 5.56572 25.3469C5.39207 25.546 5.2964 25.8014 5.2964 26.0656C5.2964 26.3299 5.39207 26.5852 5.56572 26.7844C5.73938 26.9836 5.97927 27.1131 6.24106 27.1492L6.38981 27.1594H7.11898L7.26627 27.1492C7.52806 27.1131 7.76795 26.9836 7.94161 26.7844C8.11526 26.5852 8.21094 26.3299 8.21094 26.0656C8.21094 25.8014 8.11526 25.546 7.94161 25.3469C7.76795 25.1477 7.52806 25.0181 7.26627 24.9821L7.11898 24.9719ZM26.8021 0.916657C27.6335 0.916554 28.434 1.23209 29.0417 1.79949C29.6495 2.36689 30.0192 3.14384 30.0761 3.97332L30.0834 4.19791V17.3229C30.0835 18.1543 29.7679 18.9548 29.2005 19.5625C28.6331 20.1703 27.8562 20.54 27.0267 20.5969L26.8021 20.6042H21.3392V23.5208H23.1563C23.4334 23.5209 23.7001 23.6262 23.9026 23.8154C24.1051 24.0046 24.2283 24.2635 24.2471 24.54C24.266 24.8165 24.1793 25.0898 24.0044 25.3048C23.8295 25.5198 23.5796 25.6603 23.305 25.6981L23.1563 25.7083H14.0417V23.5208H19.1517V20.6042H14.0417V13.3125C14.0418 12.3869 13.6899 11.4958 13.0573 10.8201C12.4246 10.1444 11.5587 9.73467 10.635 9.67395L10.3959 9.66666H3.83335V4.19791C3.83325 3.36647 4.14878 2.566 4.71618 1.95827C5.28358 1.35053 6.06054 0.980855 6.89002 0.923948L7.1146 0.916657H26.8021Z" fill="#D1D2D1"/>
</svg>
