<svg width="56" height="56" viewBox="0 0 56 56" fill="none" xmlns="http://www.w3.org/2000/svg">
<circle cx="28" cy="28" r="25" fill="#D1D2D1"/>
<path d="M28 0.875C13.0207 0.875 0.875 13.0207 0.875 28C0.875 42.9793 13.0207 55.125 28 55.125C42.9793 55.125 55.125 42.9793 55.125 28C55.125 13.0207 42.9793 0.875 28 0.875ZM36.7248 28.4178L23.5014 38.0387C23.4289 38.0908 23.3434 38.1219 23.2544 38.1286C23.1654 38.1352 23.0762 38.1173 22.9968 38.0766C22.9173 38.0359 22.8506 37.9741 22.804 37.898C22.7573 37.8219 22.7326 37.7344 22.7324 37.6451V18.4154C22.7321 18.326 22.7566 18.2382 22.8032 18.1618C22.8497 18.0854 22.9165 18.0234 22.9961 17.9827C23.0757 17.9419 23.1651 17.924 23.2543 17.9309C23.3435 17.9378 23.429 17.9693 23.5014 18.0219L36.7248 27.6367C36.7873 27.6809 36.8382 27.7394 36.8734 27.8074C36.9086 27.8753 36.9269 27.9507 36.9269 28.0272C36.9269 28.1038 36.9086 28.1792 36.8734 28.2471C36.8382 28.3151 36.7873 28.3736 36.7248 28.4178Z" fill="#272B31"/>
</svg>
