<svg width="36" height="36" viewBox="0 0 36 36" fill="none" xmlns="http://www.w3.org/2000/svg">
<circle cx="18" cy="18" r="15" fill="#D1D2D1"/>
<path d="M30.5958 5.40418C23.64 -1.5516 12.3611 -1.5516 5.40535 5.40418C-1.55162 12.3612 -1.55162 23.6388 5.40535 30.5946C12.3611 37.5516 23.64 37.5516 30.5958 30.5946C37.5516 23.6388 37.5516 12.3612 30.5958 5.40418V5.40418ZM7.31307 17.7316C7.31307 16.0305 7.96916 14.4333 9.162 13.231C9.74456 12.6388 10.4394 12.1688 11.2059 11.8486C11.9724 11.5283 12.7951 11.3643 13.6258 11.366H20.6148V9.09315L27.5012 13.1022L20.6148 17.1112V14.8383H13.6258C12.0435 14.8383 10.7574 16.1362 10.7574 17.7316C10.7574 17.8094 10.7598 17.8872 10.7657 17.965L7.64735 19.7812C7.42475 19.1209 7.31183 18.4285 7.31307 17.7316V17.7316ZM26.8379 22.7642C26.2544 23.3565 25.5587 23.8266 24.7914 24.147C24.0242 24.4674 23.2008 24.6317 22.3694 24.6304H15.3934V26.9057L8.50057 22.8931L15.3934 18.8805V21.1558H22.3688C23.9529 21.1558 25.2413 19.8549 25.2413 18.2589C25.2413 18.1847 25.2378 18.1104 25.2324 18.0386L28.3585 16.2182C28.5753 16.8677 28.6881 17.5541 28.6881 18.2595C28.6881 19.9617 28.0308 21.5607 26.8379 22.7642Z" fill="#272B31"/>
</svg>
